G04 DesignSpark PCB Gerber Version 11.0 Build 5877*
G04 #@! TF.Part,Single*
G04 #@! TF.FilePolarity,Positive*
%FSLAX35Y35*%
%MOIN*%
G04 #@! TA.AperFunction,MechanicalDrill*
%ADD21C,0.02900*%
G04 #@! TA.AperFunction,ViaDrill*
%ADD20C,0.03200*%
G04 #@! TA.AperFunction,MechanicalDrill*
%ADD22C,0.03500*%
G04 #@! TA.AperFunction,ComponentDrill*
%ADD24C,0.03600*%
%ADD26C,0.04000*%
%ADD27C,0.04200*%
%ADD23C,0.05906*%
%ADD25C,0.12992*%
G04 #@! TD.AperFunction*
X0Y0D02*
D02*
D20*
X24450Y138800D03*
X25350Y193100D03*
X25650Y128100D03*
X39750Y93600D03*
X40250Y192600D03*
X50250Y257900D03*
X53350Y191600D03*
X60050Y264700D03*
X63450Y100100D03*
X64350Y123500D03*
X69650Y112100D03*
X92650Y252200D03*
X103350Y249600D03*
X106850Y87700D03*
X114150Y248500D03*
X116050Y81500D03*
Y141500D03*
X124250Y169100D03*
X137850Y81500D03*
Y141500D03*
X138350Y206800D03*
X147150Y203200D03*
X147350Y262500D03*
X157050Y143200D03*
X163250Y149200D03*
X178950Y261300D03*
X197750Y145200D03*
X201050Y180800D03*
X205550Y149000D03*
X207650Y190300D03*
X246950Y151600D03*
X261850Y219800D03*
X270750Y155900D03*
X271150Y193700D03*
X272950Y213000D03*
X286450Y128600D03*
X322950Y146000D03*
X331450Y200100D03*
X339950Y162600D03*
X353850Y275600D03*
D02*
D21*
X190050Y98300D03*
X207050Y88100D03*
X241250Y98200D03*
X257150Y78700D03*
X300150Y75600D03*
D02*
D22*
X192050Y242700D03*
X299050Y126200D03*
D02*
D23*
X44050Y37200D03*
X64050D03*
X91850D03*
X111850D03*
X131850D03*
X151850D03*
X171850D03*
X191850D03*
X211850D03*
X231850D03*
X251850D03*
X271850D03*
X291850D03*
X311850D03*
X331850D03*
X351850D03*
X371850D03*
D02*
D24*
X214950Y249800D03*
X224950D03*
X234950D03*
X244950D03*
X254950D03*
X264950D03*
X274950D03*
X282450Y157800D03*
Y167800D03*
Y177800D03*
Y187800D03*
X306550Y213200D03*
Y223200D03*
Y233200D03*
Y243200D03*
Y253200D03*
X310750Y158700D03*
Y168700D03*
Y178700D03*
Y188700D03*
X325850Y222800D03*
Y232800D03*
X374150Y101600D03*
Y111600D03*
Y121600D03*
Y131600D03*
Y141600D03*
Y151600D03*
D02*
D25*
X18150Y69500D03*
Y267500D03*
X368450Y69500D03*
Y267500D03*
D02*
D26*
X345250Y217200D03*
X373250D03*
D02*
D27*
X95850Y68100D03*
X105850D03*
X115850D03*
X137950D03*
X147950D03*
X157950D03*
X0Y0D02*
M02*
