G04 DesignSpark PCB Gerber Version 11.0 Build 5877*
G04 #@! TF.Part,Single*
G04 #@! TF.FileFunction,Soldermask,Bot*
G04 #@! TF.FilePolarity,Negative*
%FSLAX35Y35*%
%MOIN*%
G04 #@! TA.AperFunction,ComponentPad*
%ADD70O,0.07000X0.13000*%
%ADD19O,0.08000X0.13000*%
%ADD13O,0.10000X0.19000*%
G04 #@! TA.AperFunction,WasherPad*
%ADD10C,0.07000*%
%ADD11C,0.09000*%
%ADD12C,0.10000*%
G04 #@! TA.AperFunction,ComponentPad*
%ADD15O,0.10700X0.07000*%
%ADD71O,0.11000X0.07000*%
%ADD14O,0.13000X0.07000*%
%ADD16C,0.14792*%
%AMT18*0 Octagon Pad at angle 0*4,1,8,-0.01656,-0.04000,0.01656,-0.04000,0.04000,-0.01656,0.04000,0.01656,0.01656,0.04000,-0.01656,0.04000,-0.04000,0.01656,-0.04000,-0.01656,-0.01656,-0.04000,0*%
%ADD18T18*%
%AMT17*0 Octagon Pad at angle 0*4,1,8,-0.02278,-0.05500,0.02278,-0.05500,0.05500,-0.02278,0.05500,0.02278,0.02278,0.05500,-0.02278,0.05500,-0.05500,0.02278,-0.05500,-0.02278,-0.02278,-0.05500,0*%
%ADD17T17*%
G04 #@! TD.AperFunction*
X0Y0D02*
D02*
D10*
X157050Y143200D03*
X163250Y149200D03*
X190050Y98300D03*
X197750Y145200D03*
X205550Y149000D03*
X207050Y88100D03*
X241250Y98200D03*
X257150Y78700D03*
X299050Y126200D03*
D02*
D11*
X50250Y257900D03*
X60050Y264700D03*
X300150Y75600D03*
D02*
D12*
X192050Y242700D03*
D02*
D13*
X44050Y37200D03*
X64050D03*
X91850D03*
X111850D03*
X131850D03*
X151850D03*
X171850D03*
X191850D03*
X211850D03*
X231850D03*
X251850D03*
X271850D03*
X291850D03*
X311850D03*
X331850D03*
X351850D03*
X371850D03*
D02*
D14*
X282450Y157800D03*
Y167800D03*
Y177800D03*
Y187800D03*
X306550Y213200D03*
Y223200D03*
Y233200D03*
Y243200D03*
Y253200D03*
X374150Y101600D03*
Y111600D03*
Y121600D03*
Y131600D03*
Y141600D03*
Y151600D03*
D02*
D15*
X325850Y222800D03*
Y232800D03*
D02*
D16*
X18150Y69500D03*
Y267500D03*
X368450Y69500D03*
Y267500D03*
D02*
D17*
X345250Y217200D03*
X373250D03*
D02*
D18*
X116050Y81500D03*
Y141500D03*
X137850Y81500D03*
Y141500D03*
D02*
D19*
X95850Y68100D03*
X105850D03*
X115850D03*
X137950D03*
X147950D03*
X157950D03*
D02*
D70*
X214950Y249800D03*
X224950D03*
X234950D03*
X244950D03*
X254950D03*
X264950D03*
X274950D03*
D02*
D71*
X310750Y158700D03*
Y168700D03*
Y178700D03*
Y188700D03*
X0Y0D02*
M02*
