G04 DesignSpark PCB Gerber Version 11.0 Build 5877*
G04 #@! TF.Part,Single*
G04 #@! TF.FileFunction,Legend,Top*
G04 #@! TF.FilePolarity,Positive*
%FSLAX35Y35*%
%MOIN*%
G04 #@! TA.AperFunction,ComponentPad*
%AMT97*0 Octagon Pad at angle 0*4,1,8,-0.01450,-0.03500,0.01450,-0.03500,0.03500,-0.01450,0.03500,0.01450,0.01450,0.03500,-0.01450,0.03500,-0.03500,0.01450,-0.03500,-0.01450,-0.01450,-0.03500,0*%
%ADD97T97*%
%AMT93*0 Octagon Pad at angle 0*4,1,8,-0.02071,-0.05000,0.02071,-0.05000,0.05000,-0.02071,0.05000,0.02071,0.02071,0.05000,-0.02071,0.05000,-0.05000,0.02071,-0.05000,-0.02071,-0.02071,-0.05000,0*%
%ADD93T93*%
%ADD100O,0.06000X0.12000*%
%ADD99O,0.07000X0.12000*%
%ADD77O,0.09000X0.18000*%
G04 #@! TA.AperFunction,SMDPad,CuDef*
%ADD86R,0.02000X0.05800*%
%ADD95R,0.03937X0.05512*%
%ADD82R,0.05500X0.06000*%
%ADD81R,0.05512X0.11811*%
%ADD76R,0.05512X0.14961*%
%ADD94R,0.06300X0.08000*%
%ADD78R,0.07087X0.09449*%
%ADD91R,0.05512X0.05512*%
%ADD92R,0.05906X0.05906*%
%ADD87R,0.06300X0.06300*%
G04 #@! TD.AperFunction*
%ADD12C,0.00100*%
%ADD10C,0.00500*%
%ADD14C,0.00800*%
%ADD73C,0.01800*%
%ADD70C,0.03000*%
G04 #@! TA.AperFunction,ViaPad*
%ADD27C,0.05600*%
G04 #@! TD.AperFunction*
%ADD22C,0.06000*%
%ADD71C,0.07000*%
%ADD26C,0.08000*%
%ADD20C,0.09000*%
G04 #@! TA.AperFunction,ComponentPad*
%ADD88O,0.09700X0.06000*%
%ADD101O,0.10000X0.06000*%
%ADD83O,0.12000X0.06000*%
G04 #@! TA.AperFunction,SMDPad,CuDef*
%ADD85R,0.05800X0.02000*%
%ADD90R,0.05512X0.03937*%
%ADD74R,0.06000X0.05500*%
%ADD75R,0.11811X0.05512*%
%ADD79R,0.07874X0.05906*%
%ADD96R,0.08000X0.06300*%
%ADD84R,0.10200X0.07000*%
%ADD98R,0.13386X0.07480*%
%ADD102R,0.17000X0.08000*%
%ADD80R,0.07874X0.14961*%
G04 #@! TA.AperFunction,ComponentPad*
%ADD89C,0.13792*%
G04 #@! TA.AperFunction,SMDPad,CuDef*
%ADD103R,0.46000X0.42000*%
G04 #@! TD.AperFunction*
X0Y0D02*
D02*
D10*
X61650Y145100D02*
X29650D01*
Y183100D01*
X61650D01*
Y145100D01*
X76650Y155100D02*
X81650D01*
Y153100D01*
X76650D01*
Y155100D01*
Y175100D02*
Y173100D01*
X81650D01*
Y175100D01*
X76650D01*
D02*
D12*
X7428Y85469D02*
X9987D01*
Y94131D01*
X7428D01*
Y85469D01*
G36*
X7428Y85469D02*
X9987D01*
Y94131D01*
X7428D01*
Y85469D01*
G37*
X11660Y84977D02*
X14318D01*
Y94623D01*
X11660D01*
Y84977D01*
G36*
X11660Y84977D02*
X14318D01*
Y94623D01*
X11660D01*
Y84977D01*
G37*
X29672Y94131D02*
X27113D01*
Y85469D01*
X29672D01*
Y94131D01*
G36*
X29672Y94131D02*
X27113D01*
Y85469D01*
X29672D01*
Y94131D01*
G37*
D02*
D14*
X10085Y84682D02*
Y94918D01*
X27015D01*
Y84682D01*
X10085D01*
D02*
D70*
X116050Y81500D02*
Y86500D01*
Y136500D02*
Y141500D01*
X137850Y81500D02*
Y86500D01*
Y136500D02*
Y141500D01*
D02*
D71*
X92650Y252200D03*
X103350Y249600D03*
X114150Y248500D03*
X147350Y262500D03*
X178950Y261300D03*
X322950Y146000D03*
X331450Y200100D03*
X339950Y162600D03*
D02*
D20*
X192050Y242700D03*
D02*
D22*
X138350Y206800D03*
X147150Y203200D03*
X157050Y143200D03*
X163250Y149200D03*
X190050Y98300D03*
X197750Y145200D03*
X201050Y180800D03*
X205550Y149000D03*
X207050Y88100D03*
X207650Y190300D03*
X241250Y98200D03*
X257150Y78700D03*
X261850Y219800D03*
X270750Y155900D03*
X271150Y193700D03*
X272950Y213000D03*
X286450Y128600D03*
X299050Y126200D03*
X353850Y275600D03*
D02*
D26*
X24450Y138800D03*
X25350Y193100D03*
X25650Y128100D03*
X39750Y93600D03*
X40250Y192600D03*
X50250Y257900D03*
X53350Y191600D03*
X60050Y264700D03*
X63450Y100100D03*
X64350Y123500D03*
X69650Y112100D03*
X106850Y87700D03*
X124250Y169100D03*
X300150Y75600D03*
D02*
D27*
X246950Y151600D03*
D02*
D73*
X21150Y69500D02*
G75*
G03*
X15150I-3000J0D01*
G01*
G75*
G03*
X21150I3000J0D01*
G01*
Y267500D02*
G75*
G03*
X15150I-3000J0D01*
G01*
G75*
G03*
X21150I3000J0D01*
G01*
X371450Y69500D02*
G75*
G03*
X365450I-3000J0D01*
G01*
G75*
G03*
X371450I3000J0D01*
G01*
Y267500D02*
G75*
G03*
X365450I-3000J0D01*
G01*
G75*
G03*
X371450I3000J0D01*
G01*
D02*
D74*
X30850Y214800D03*
X35050Y136800D03*
X39850Y214800D03*
X44050Y136800D03*
X180450Y116200D03*
X189450D03*
X208050D03*
X217050D03*
X235250D03*
X244250D03*
X261050D03*
X270050D03*
D02*
D75*
X30001Y116300D03*
X48899D03*
X62401Y202300D03*
X81299D03*
D02*
D76*
X51850Y63489D03*
Y87111D03*
D02*
D77*
X44050Y37200D03*
X64050D03*
X91850D03*
X111850D03*
X131850D03*
X151850D03*
X171850D03*
X191850D03*
X211850D03*
X231850D03*
X251850D03*
X271850D03*
X291850D03*
X311850D03*
X331850D03*
X351850D03*
X371850D03*
D02*
D78*
X10578Y89800D03*
X26522D03*
D02*
D79*
X40952Y224945D03*
Y234000D03*
Y243055D03*
D02*
D80*
X16148Y234000D03*
D02*
D81*
X62250Y224951D03*
Y243849D03*
X91950Y224951D03*
Y243849D03*
X112650Y182751D03*
Y201649D03*
X132950Y225451D03*
Y244349D03*
X216250Y162651D03*
Y181549D03*
D02*
D82*
X130950Y182900D03*
Y191900D03*
X140250Y182900D03*
Y191900D03*
X150350Y224300D03*
Y233300D03*
X197750Y164200D03*
Y173200D03*
X318650Y246000D03*
Y255000D03*
X327850Y246000D03*
Y255000D03*
D02*
D83*
X282450Y157800D03*
Y167800D03*
Y177800D03*
Y187800D03*
X306550Y213200D03*
Y223200D03*
Y233200D03*
Y243200D03*
Y253200D03*
X374150Y101600D03*
Y111600D03*
Y121600D03*
Y131600D03*
Y141600D03*
Y151600D03*
D02*
D84*
X113050Y223100D03*
Y237300D03*
D02*
D85*
X160533Y189576D03*
Y192726D03*
Y195876D03*
Y199025D03*
Y202175D03*
Y205324D03*
Y208474D03*
Y211624D03*
X192967Y189576D03*
Y192726D03*
Y195876D03*
Y199025D03*
Y202175D03*
Y205324D03*
Y208474D03*
Y211624D03*
D02*
D86*
X165726Y184383D03*
Y216817D03*
X168876Y184383D03*
Y216817D03*
X172026Y184383D03*
Y216817D03*
X175175Y184383D03*
Y216817D03*
X178325Y184383D03*
Y216817D03*
X181474Y184383D03*
Y216817D03*
X184624Y184383D03*
Y216817D03*
X187774Y184383D03*
Y216817D03*
D02*
D87*
X139750Y158200D03*
Y171600D03*
X151750Y158200D03*
Y171600D03*
X161450Y244200D03*
Y257600D03*
X176350Y106500D03*
X189750D03*
X192850Y60800D03*
Y74200D03*
X207650Y106500D03*
X221050D03*
X221350Y60800D03*
Y74200D03*
X230950Y106500D03*
X234650Y163000D03*
Y176400D03*
Y186200D03*
Y199600D03*
X239750Y60800D03*
Y74200D03*
X244350Y106500D03*
X260550D03*
X262650Y156500D03*
Y169900D03*
Y180000D03*
Y193400D03*
X273950Y106500D03*
X274250Y60800D03*
Y74200D03*
X284450Y60800D03*
Y74200D03*
X284550Y86000D03*
Y99400D03*
X294450Y86000D03*
Y99400D03*
X322250Y60800D03*
Y74200D03*
X324550Y123800D03*
X324650Y132700D03*
X328250Y265700D03*
Y275500D03*
X332750Y60800D03*
Y74200D03*
X337950Y123800D03*
X338050Y132700D03*
X339950Y172800D03*
Y186200D03*
X340150Y241800D03*
Y255200D03*
X341650Y265700D03*
Y275500D03*
D02*
D88*
X325850Y222800D03*
Y232800D03*
D02*
D89*
X18150Y69500D03*
Y267500D03*
X368450Y69500D03*
Y267500D03*
D02*
D90*
X182119Y88700D03*
X190781Y84960D03*
Y92440D03*
X213719Y87660D03*
Y95140D03*
X222381Y91400D03*
X231519Y88700D03*
X240181Y84960D03*
Y92440D03*
X242419Y163100D03*
Y194600D03*
X251081Y159360D03*
Y166840D03*
Y190860D03*
Y198340D03*
X259119Y84960D03*
Y92440D03*
X267781Y88700D03*
X293719Y64500D03*
X302381Y60760D03*
Y68240D03*
D02*
D91*
X183450Y59020D03*
Y73980D03*
X211950Y59020D03*
Y73980D03*
X230250Y59020D03*
Y73980D03*
X265350Y59020D03*
Y73980D03*
X311850Y59020D03*
Y73980D03*
D02*
D92*
X305560Y265700D03*
Y276000D03*
X319340Y265700D03*
Y276000D03*
D02*
D93*
X345250Y217200D03*
X373250D03*
D02*
D94*
X350150Y185400D03*
X365150D03*
D02*
D95*
X348010Y167169D03*
X351750Y175831D03*
X355490Y167169D03*
D02*
D96*
X98250Y83100D03*
Y98100D03*
X161450Y85400D03*
Y100400D03*
D02*
D97*
X116050Y81500D03*
Y141500D03*
X137850Y81500D03*
Y141500D03*
D02*
D98*
X11750Y101723D03*
Y117077D03*
X96950Y109823D03*
Y125177D03*
X161350Y111523D03*
Y126877D03*
D02*
D99*
X95850Y68100D03*
X105850D03*
X115850D03*
X137950D03*
X147950D03*
X157950D03*
D02*
D100*
X214950Y249800D03*
X224950D03*
X234950D03*
X244950D03*
X254950D03*
X264950D03*
X274950D03*
D02*
D101*
X310750Y158700D03*
Y168700D03*
Y178700D03*
Y188700D03*
D02*
D102*
X83650Y154100D03*
Y174100D03*
D02*
D103*
X39650Y164100D03*
X0Y0D02*
M02*
