G04 DesignSpark PCB Gerber Version 11.0 Build 5877*
G04 #@! TF.Part,Single*
G04 #@! TF.FileFunction,Copper,L2,Bot*
G04 #@! TF.FilePolarity,Positive*
%FSLAX35Y35*%
%MOIN*%
G04 #@! TA.AperFunction,ComponentPad*
%AMT97*0 Octagon Pad at angle 0*4,1,8,-0.01450,-0.03500,0.01450,-0.03500,0.03500,-0.01450,0.03500,0.01450,0.01450,0.03500,-0.01450,0.03500,-0.03500,0.01450,-0.03500,-0.01450,-0.01450,-0.03500,0*%
%ADD97T97*%
%AMT93*0 Octagon Pad at angle 0*4,1,8,-0.02071,-0.05000,0.02071,-0.05000,0.05000,-0.02071,0.05000,0.02071,0.02071,0.05000,-0.02071,0.05000,-0.05000,0.02071,-0.05000,-0.02071,-0.02071,-0.05000,0*%
%ADD93T93*%
%ADD100O,0.06000X0.12000*%
%ADD99O,0.07000X0.12000*%
%ADD77O,0.09000X0.18000*%
G04 #@! TD.AperFunction*
%ADD10C,0.00500*%
%ADD25C,0.02000*%
%ADD150C,0.02400*%
%ADD70C,0.03000*%
G04 #@! TA.AperFunction,ViaPad*
%ADD27C,0.05600*%
G04 #@! TD.AperFunction*
%ADD22C,0.06000*%
%ADD71C,0.07000*%
%ADD26C,0.08000*%
%ADD20C,0.09000*%
G04 #@! TA.AperFunction,ComponentPad*
%ADD88O,0.09700X0.06000*%
%ADD101O,0.10000X0.06000*%
%ADD83O,0.12000X0.06000*%
%ADD89C,0.13792*%
G04 #@! TD.AperFunction*
X0Y0D02*
D02*
D10*
X18250Y219000D02*
Y108900D01*
X26750Y100400D01*
X45350D01*
X56450Y89300D01*
X75450D01*
X78050Y91900D01*
Y100400D01*
X78150Y100500D01*
Y215600D01*
X70150Y223600D01*
X22850D01*
X18250Y219000D01*
X35000Y192600D02*
G75*
G02*
X45500I5250J0D01*
G01*
G75*
G02*
X35000I-5250J0D01*
G01*
X48100Y191600D02*
G75*
G02*
X58600I5250J0D01*
G01*
G75*
G02*
X48100I-5250J0D01*
G01*
X58200Y100100D02*
G75*
G02*
X68700I5250J0D01*
G01*
G75*
G02*
X58200I-5250J0D01*
G01*
X59100Y123500D02*
G75*
G02*
X69600I5250J0D01*
G01*
G75*
G02*
X59100I-5250J0D01*
G01*
X64400Y112100D02*
G75*
G02*
X74900I5250J0D01*
G01*
G75*
G02*
X64400I-5250J0D01*
G01*
X19200Y138800D02*
G75*
G02*
X29700I5250J0D01*
G01*
G75*
G02*
X19200I-5250J0D01*
G01*
X20400Y128100D02*
G75*
G02*
X30900I5250J0D01*
G01*
G75*
G02*
X20400I-5250J0D01*
G01*
X20100Y193100D02*
G75*
G02*
X30600I5250J0D01*
G01*
G75*
G02*
X20100I-5250J0D01*
G01*
X45650Y100100D02*
G36*
X45650Y100100D02*
X56200Y89550D01*
X75700D01*
X77900Y91750D01*
Y100100D01*
X68700D01*
G75*
G02*
X58200I-5250J0D01*
G01*
X45650D01*
G37*
X18500Y112100D02*
G36*
X18500Y112100D02*
Y108650D01*
X26750Y100400D01*
X45350D01*
X45650Y100100D01*
X58200D01*
G75*
G02*
X68700I5250J0D01*
G01*
X77900D01*
Y112100D01*
X74900D01*
G75*
G02*
X64400I-5250J0D01*
G01*
X18500D01*
G37*
Y123500D02*
G36*
X18500Y123500D02*
Y112100D01*
X64400D01*
G75*
G02*
X74900I5250J0D01*
G01*
X77900D01*
Y123500D01*
X69600D01*
G75*
G02*
X59100I-5250J0D01*
G01*
X28180D01*
G75*
G02*
X23120I-2530J4600D01*
G01*
X18500D01*
G37*
Y138800D02*
G36*
X18500Y138800D02*
Y123500D01*
X23120D01*
G75*
G02*
X20400Y128100I2530J4600D01*
G01*
G75*
G02*
X30900I5250J0D01*
G01*
G75*
G02*
X28180Y123500I-5250J0D01*
G01*
X59100D01*
G75*
G02*
X69600I5250J0D01*
G01*
X77900D01*
Y138800D01*
X29700D01*
G75*
G02*
X19200I-5250J0D01*
G01*
X18500D01*
G37*
Y192600D02*
G36*
X18500Y192600D02*
Y138800D01*
X19200D01*
G75*
G02*
X29700I5250J0D01*
G01*
X77900D01*
Y192600D01*
X58504D01*
G75*
G02*
X58600Y191600I-5154J-1000D01*
G01*
G75*
G02*
X48100I-5250J0D01*
G01*
G75*
G02*
X48196Y192600I5250J0D01*
G01*
X45500D01*
G75*
G02*
X35000I-5250J0D01*
G01*
X30576D01*
G75*
G02*
X20124I-5226J500D01*
G01*
X18500D01*
G37*
Y219250D02*
G36*
X18500Y219250D02*
Y192600D01*
X20124D01*
G75*
G02*
X20100Y193100I5226J502D01*
G01*
G75*
G02*
X30600I5250J0D01*
G01*
G75*
G02*
X30576Y192600I-5250J2D01*
G01*
X35000D01*
G75*
G02*
X45500I5250J0D01*
G01*
X48196D01*
G75*
G02*
X58504I5154J-1000D01*
G01*
X77900D01*
Y215850D01*
X70400Y223350D01*
X22600D01*
X18500Y219250D01*
G37*
X322650Y104200D02*
X308250Y118600D01*
X282950D01*
X269950Y131600D01*
X111950D01*
X106450Y137100D01*
Y164000D01*
X127950Y185500D01*
Y214700D01*
X133350Y220100D01*
Y274700D01*
X131350Y276700D01*
X39650D01*
X33150Y270200D01*
Y235400D01*
X39350Y229200D01*
X73550D01*
X82750Y220000D01*
Y101400D01*
X86850Y97300D01*
X111350D01*
X114150Y94500D01*
X155950D01*
X191050Y59400D01*
X313050D01*
X322650Y69000D01*
Y104200D01*
X294900Y75600D02*
G75*
G02*
X305400I5250J0D01*
G01*
G75*
G02*
X294900I-5250J0D01*
G01*
X184800Y98300D02*
G75*
G02*
X195300I5250J0D01*
G01*
G75*
G02*
X184800I-5250J0D01*
G01*
X201800Y88100D02*
G75*
G02*
X212300I5250J0D01*
G01*
G75*
G02*
X201800I-5250J0D01*
G01*
X236000Y98600D02*
G75*
G02*
X246500I5250J0D01*
G01*
G75*
G02*
X236000I-5250J0D01*
G01*
X251500Y78500D02*
G75*
G02*
X262000I5250J0D01*
G01*
G75*
G02*
X251500I-5250J0D01*
G01*
X45000Y257900D02*
G75*
G02*
X55500I5250J0D01*
G01*
G75*
G02*
X45000I-5250J0D01*
G01*
X54800Y264700D02*
G75*
G02*
X65300I5250J0D01*
G01*
G75*
G02*
X54800I-5250J0D01*
G01*
X87900Y252200D02*
G75*
G02*
X97400I4750J0D01*
G01*
G75*
G02*
X87900I-4750J0D01*
G01*
X98600Y249600D02*
G75*
G02*
X108100I4750J0D01*
G01*
G75*
G02*
X98600I-4750J0D01*
G01*
X109400Y248500D02*
G75*
G02*
X118900I4750J0D01*
G01*
G75*
G02*
X109400I-4750J0D01*
G01*
X174850Y75600D02*
G36*
X174850Y75600D02*
X190800Y59650D01*
X313300D01*
X322400Y68750D01*
Y75600D01*
X305400D01*
G75*
G02*
X294900I-5250J0D01*
G01*
X261126D01*
G75*
G02*
X252374I-4376J2900D01*
G01*
X174850D01*
G37*
X162350Y88100D02*
G36*
X162350Y88100D02*
X174850Y75600D01*
X252374D01*
G75*
G02*
X251500Y78500I4376J2900D01*
G01*
G75*
G02*
X262000I5250J0D01*
G01*
G75*
G02*
X261126Y75600I-5250J0D01*
G01*
X294900D01*
G75*
G02*
X305400I5250J0D01*
G01*
X322400D01*
Y88100D01*
X212300D01*
G75*
G02*
X201800I-5250J0D01*
G01*
X162350D01*
G37*
X85850Y98300D02*
G36*
X85850Y98300D02*
X86850Y97300D01*
X111350D01*
X114150Y94500D01*
X155950D01*
X162350Y88100D01*
X201800D01*
G75*
G02*
X212300I5250J0D01*
G01*
X322400D01*
Y98300D01*
X246491D01*
G75*
G02*
X236009I-5241J300D01*
G01*
X195300D01*
G75*
G02*
X184800I-5250J0D01*
G01*
X85850D01*
G37*
X33400Y252200D02*
G36*
X33400Y252200D02*
Y235150D01*
X39350Y229200D01*
X73550D01*
X82750Y220000D01*
Y101400D01*
X85850Y98300D01*
X184800D01*
G75*
G02*
X195300I5250J0D01*
G01*
X236009D01*
G75*
G02*
X236000Y98600I5243J302D01*
G01*
G75*
G02*
X246500I5250J0D01*
G01*
G75*
G02*
X246491Y98300I-5251J2D01*
G01*
X322400D01*
Y104450D01*
X308250Y118600D01*
X282950D01*
X269950Y131600D01*
X111950D01*
X106450Y137100D01*
Y164000D01*
X127950Y185500D01*
Y214700D01*
X133350Y220100D01*
Y252200D01*
X117129D01*
G75*
G02*
X118900Y248500I-2979J-3700D01*
G01*
G75*
G02*
X109400I-4750J0D01*
G01*
G75*
G02*
X111171Y252200I4750J0D01*
G01*
X107325D01*
G75*
G02*
X108100Y249600I-3975J-2600D01*
G01*
G75*
G02*
X98600I-4750J0D01*
G01*
G75*
G02*
X99375Y252200I4750J0D01*
G01*
X97400D01*
G75*
G02*
X87900I-4750J0D01*
G01*
X33400D01*
G37*
Y257900D02*
G36*
X33400Y257900D02*
Y252200D01*
X87900D01*
G75*
G02*
X97400I4750J0D01*
G01*
X99375D01*
G75*
G02*
X107325I3975J-2600D01*
G01*
X111171D01*
G75*
G02*
X117129I2979J-3700D01*
G01*
X133350D01*
Y257900D01*
X55500D01*
G75*
G02*
X45000I-5250J0D01*
G01*
X33400D01*
G37*
Y264700D02*
G36*
X33400Y264700D02*
Y257900D01*
X45000D01*
G75*
G02*
X55500I5250J0D01*
G01*
X133350D01*
Y264700D01*
X65300D01*
G75*
G02*
X54800I-5250J0D01*
G01*
X33400D01*
G37*
Y270450D02*
G36*
X33400Y270450D02*
Y264700D01*
X54800D01*
G75*
G02*
X65300I5250J0D01*
G01*
X133350D01*
Y274700D01*
X131600Y276450D01*
X39400D01*
X33400Y270450D01*
G37*
D02*
D70*
X22682Y137032D02*
X19854Y134204D01*
X22682Y140568D02*
X19854Y143396D01*
X23582Y191332D02*
X20754Y188504D01*
X23582Y194868D02*
X20754Y197696D01*
X23882Y126332D02*
X21054Y123504D01*
X23882Y129868D02*
X21054Y132696D01*
X26218Y137032D02*
X29046Y134204D01*
X26218Y140568D02*
X29046Y143396D01*
X27118Y191332D02*
X29946Y188504D01*
X27118Y194868D02*
X29946Y197696D01*
X27418Y126332D02*
X30246Y123504D01*
X27418Y129868D02*
X30246Y132696D01*
X37750Y192600D02*
X33750D01*
X40250Y190100D02*
Y186100D01*
Y195100D02*
Y199100D01*
X42750Y192600D02*
X46750D01*
X47750Y257900D02*
X43750D01*
X50250Y255400D02*
Y251400D01*
Y260400D02*
Y264400D01*
X50850Y191600D02*
X46850D01*
X52750Y257900D02*
X56750D01*
X53350Y189100D02*
Y185100D01*
Y194100D02*
Y198100D01*
X55850Y191600D02*
X59850D01*
X57550Y264700D02*
X53550D01*
X60050Y262200D02*
Y258200D01*
Y267200D02*
Y271200D01*
X60950Y100100D02*
X56950D01*
X61850Y123500D02*
X57850D01*
X62550Y264700D02*
X66550D01*
X63450Y97600D02*
Y93600D01*
Y102600D02*
Y106600D01*
X64350Y121000D02*
Y117000D01*
Y126000D02*
Y130000D01*
X65950Y100100D02*
X69950D01*
X66850Y123500D02*
X70850D01*
X67150Y112100D02*
X63150D01*
X69650Y109600D02*
Y105600D01*
Y114600D02*
Y118600D01*
X72150Y112100D02*
X76150D01*
X91236Y250786D02*
X88407Y247957D01*
X91236Y253614D02*
X88407Y256443D01*
X94064Y250786D02*
X96893Y247957D01*
X94064Y253614D02*
X96893Y256443D01*
X101936Y248186D02*
X99107Y245357D01*
X101936Y251014D02*
X99107Y253843D01*
X104764Y248186D02*
X107593Y245357D01*
X104764Y251014D02*
X107593Y253843D01*
X112736Y247086D02*
X109907Y244257D01*
X112736Y249914D02*
X109907Y252743D01*
X115564Y247086D02*
X118393Y244257D01*
X115564Y249914D02*
X118393Y252743D01*
X187550Y98300D02*
X183550D01*
X190050Y95800D02*
Y91800D01*
Y100800D02*
Y104800D01*
X192550Y98300D02*
X196550D01*
X204550Y88100D02*
X200550D01*
X207050Y85600D02*
Y81600D01*
Y90600D02*
Y94600D01*
X209550Y88100D02*
X213550D01*
X238750Y98600D02*
X234750D01*
X241250Y96100D02*
Y92100D01*
Y101100D02*
Y105100D01*
X243750Y98600D02*
X247750D01*
X254250Y78500D02*
X250250D01*
X256750Y76000D02*
Y72000D01*
Y81000D02*
Y85000D01*
X259250Y78500D02*
X263250D01*
X297650Y75600D02*
X293650D01*
X300150Y73100D02*
Y69100D01*
Y78100D02*
Y82100D01*
X302650Y75600D02*
X306650D01*
X339950Y162600D02*
X339450D01*
Y162000D01*
X338950D01*
D02*
D71*
X92650Y252200D03*
X103350Y249600D03*
X114150Y248500D03*
X147350Y262500D03*
X178950Y261300D03*
X219850Y180800D02*
X201050D01*
X237750Y181000D02*
X219850D01*
X237750D02*
X262450Y156300D01*
X262950D01*
X263350Y155900D02*
X270750D01*
X271150Y193700D02*
X248050D01*
X237350Y183000D01*
Y181000D01*
X237750D01*
X306550Y253200D02*
Y278300D01*
X307050Y278800D02*
X138250D01*
X127850Y268400D01*
Y267100D01*
X307050Y278800D02*
X353850D01*
X322950Y146000D03*
X331450Y200100D03*
X339950Y162600D03*
D02*
D20*
X39750Y93400D02*
X52150Y81000D01*
X86150D01*
X92850Y87700D01*
X106850D01*
X192050Y242700D03*
X201050Y180800D02*
X111950D01*
Y182200D01*
X111750D01*
X246950Y151600D02*
X223350D01*
X205850Y169100D01*
X124250D01*
D02*
D22*
X39750Y93600D02*
Y93400D01*
X64050Y42900D02*
Y37200D01*
X95850Y53900D02*
Y54600D01*
Y53800D01*
X137950Y68100D02*
Y61900D01*
X138350Y206800D03*
X147150Y203200D03*
X147350Y262500D02*
Y264300D01*
X153050Y270000D01*
X274750D01*
X278850Y265900D01*
Y245300D01*
X290950Y233200D01*
X306550D01*
X157050Y143200D03*
X163250Y149200D03*
X178950Y261300D02*
X263150D01*
X265550Y258900D01*
Y238400D01*
X301350Y202600D01*
X327750D01*
X331450Y200100D01*
X190050Y98300D03*
X197750Y145200D03*
X201050Y180800D03*
X205550Y149000D03*
X207050Y88100D03*
X207650Y190300D03*
X219850Y181000D02*
Y180800D01*
X241250Y98200D03*
Y98600D01*
X241150D01*
X257150Y78700D03*
Y78500D01*
X256750D01*
Y78700D01*
X261850Y219800D03*
X262950Y156300D02*
X263350Y155900D01*
X270750D03*
X271150Y193700D03*
X272950Y213000D03*
X286450Y128600D03*
X299050Y126200D03*
X306550Y278300D02*
X307050Y278800D01*
X310750Y188700D02*
X316950D01*
X322950Y182700D01*
Y162600D01*
Y146000D01*
X331550Y200300D02*
Y200200D01*
X331450D01*
Y200100D01*
X339950Y162600D02*
X322950D01*
X353850Y275600D03*
Y278800D02*
Y275600D01*
D02*
D25*
X138350Y206800D02*
Y207700D01*
X141550Y210900D01*
X208550D01*
X223550Y225900D01*
X268450D01*
X299250Y195100D01*
X322950D01*
X366550Y151500D01*
X374050D01*
X374150Y151600D01*
X163750Y149000D02*
X163250Y149500D01*
Y149200D01*
X197750Y145200D02*
Y143200D01*
X157050D01*
X205550Y149000D02*
Y150200D01*
X204650Y151100D01*
X165150D01*
X163250Y149200D01*
X261850Y219800D02*
X226650D01*
X210950Y204100D01*
X147150D01*
Y203200D01*
X272950Y213000D02*
Y211600D01*
X284450Y200100D01*
X288950D01*
X296050Y193000D01*
Y129200D01*
X299050Y126200D01*
X373250Y152500D02*
X374150Y151600D01*
D02*
D26*
X24450Y138800D03*
X25350Y193100D03*
X25650Y128100D03*
X39750Y93600D03*
X40250Y192600D03*
X50250Y257900D03*
X53350Y191600D03*
X60050Y264700D03*
X63450Y100100D03*
X64350Y123500D03*
X69650Y112100D03*
X95850Y53800D02*
X74950D01*
X64050Y42900D01*
X95850Y68100D02*
Y54600D01*
X106850Y87700D03*
X124250Y169100D03*
X137950Y61900D02*
X129950Y53900D01*
X95850D01*
X300150Y75600D03*
D02*
D27*
X246950Y151600D03*
D02*
D77*
X44050Y37200D03*
X64050D03*
X91850D03*
X111850D03*
X131850D03*
X151850D03*
X171850D03*
X191850D03*
X211850D03*
X231850D03*
X251850D03*
X271850D03*
X291850D03*
X311850D03*
X331850D03*
X351850D03*
X371850D03*
D02*
D83*
X282450Y157800D03*
Y167800D03*
Y177800D03*
Y187800D03*
X306550Y213200D03*
Y223200D03*
Y233200D03*
Y243200D03*
Y253200D03*
X374150Y101600D03*
Y111600D03*
Y121600D03*
Y131600D03*
Y141600D03*
Y151600D03*
D02*
D88*
X325850Y222800D03*
Y232800D03*
D02*
D89*
X18150Y69500D03*
Y267500D03*
X368450Y69500D03*
Y267500D03*
D02*
D93*
X345250Y217200D03*
X373250D03*
D02*
D97*
X116050Y81500D03*
Y141500D03*
X137850Y81500D03*
Y141500D03*
D02*
D99*
X95850Y68100D03*
X105850D03*
X115850D03*
X137950D03*
X147950D03*
X157950D03*
D02*
D100*
X214950Y249800D03*
X224950D03*
X234950D03*
X244950D03*
X254950D03*
X264950D03*
X274950D03*
D02*
D101*
X310750Y158700D03*
Y168700D03*
Y178700D03*
Y188700D03*
D02*
D150*
X207650Y190300D02*
X208750D01*
X226650Y208200D01*
X267350D01*
X280350Y195200D01*
X287350D01*
X292350Y190200D01*
Y134500D01*
X286450Y128600D01*
X0Y0D02*
M02*
