G05
M48
;#@! TF.GenerationSoftware,DesignSpark,DesignSpark PCB,11.0.5875
;#@! TF.CreationDate,2024-11-18T18:49:33--2:00*
;#@! TF.FileFunction,Plated,1,2,PTH
;FILE_FORMAT=3:5
;TYPE=PLATED
INCH,TZ
FMAT,2
T1C000.02900
T2C000.03200
T3C000.03500
T4C000.03600
T5C000.04000
T6C000.04200
T7C000.05906
T8C000.12992
%
T001
X1.90050Y0.98300
X2.07050Y0.88100
X2.41250Y0.98200
X2.57150Y0.78700
X3.00150Y0.75600
T002
X0.24450Y1.38800
X0.25350Y1.93100
X0.25650Y1.28100
X0.39750Y0.93600
X0.40250Y1.92600
X0.50250Y2.57900
X0.53350Y1.91600
X0.60050Y2.64700
X0.63450Y1.00100
X0.64350Y1.23500
X0.69650Y1.12100
X0.92650Y2.52200
X1.03350Y2.49600
X1.06850Y0.87700
X1.14150Y2.48500
X1.16050Y0.81500
X1.16050Y1.41500
X1.24250Y1.69100
X1.37850Y0.81500
X1.37850Y1.41500
X1.38350Y2.06800
X1.47150Y2.03200
X1.47350Y2.62500
X1.57050Y1.43200
X1.63250Y1.49200
X1.78950Y2.61300
X1.97750Y1.45200
X2.01050Y1.80800
X2.05550Y1.49000
X2.07650Y1.90300
X2.46950Y1.51600
X2.61850Y2.19800
X2.70750Y1.55900
X2.71150Y1.93700
X2.72950Y2.13000
X2.86450Y1.28600
X3.22950Y1.46000
X3.31450Y2.00100
X3.39950Y1.62600
X3.53850Y2.75600
T003
X1.92050Y2.42700
X2.99050Y1.26200
T004
X2.14950Y2.49800
X2.24950Y2.49800
X2.34950Y2.49800
X2.44950Y2.49800
X2.54950Y2.49800
X2.64950Y2.49800
X2.74950Y2.49800
X2.82450Y1.57800
X2.82450Y1.67800
X2.82450Y1.77800
X2.82450Y1.87800
X3.06550Y2.13200
X3.06550Y2.23200
X3.06550Y2.33200
X3.06550Y2.43200
X3.06550Y2.53200
X3.10750Y1.58700
X3.10750Y1.68700
X3.10750Y1.78700
X3.10750Y1.88700
X3.25850Y2.22800
X3.25850Y2.32800
X3.74150Y1.01600
X3.74150Y1.11600
X3.74150Y1.21600
X3.74150Y1.31600
X3.74150Y1.41600
X3.74150Y1.51600
T005
X3.45250Y2.17200
X3.73250Y2.17200
T006
X0.95850Y0.68100
X1.05850Y0.68100
X1.15850Y0.68100
X1.37950Y0.68100
X1.47950Y0.68100
X1.57950Y0.68100
T007
X0.44050Y0.37200
X0.64050Y0.37200
X0.91850Y0.37200
X1.11850Y0.37200
X1.31850Y0.37200
X1.51850Y0.37200
X1.71850Y0.37200
X1.91850Y0.37200
X2.11850Y0.37200
X2.31850Y0.37200
X2.51850Y0.37200
X2.71850Y0.37200
X2.91850Y0.37200
X3.11850Y0.37200
X3.31850Y0.37200
X3.51850Y0.37200
X3.71850Y0.37200
T008
X0.18150Y0.69500
X0.18150Y2.67500
X3.68450Y0.69500
X3.68450Y2.67500
M30
